<svg xmlns="http://www.w3.org/2000/svg" version="1.1" xmlns:xlink="http://www.w3.org/1999/xlink" xmlns:svgjs="http://svgjs.dev/svgjs" width="128" height="128" viewBox="0 0 128 128"><g transform="matrix(0.8046875,0,0,0.8046875,12.333870967741937,12.333870967741937)"><svg viewBox="0 0 155 155" data-background-color="#000000" preserveAspectRatio="xMidYMid meet" height="128" width="128" xmlns="http://www.w3.org/2000/svg" xmlns:xlink="http://www.w3.org/1999/xlink"><g id="tight-bounds" transform="matrix(1,0,0,1,0.25,0.25)"><svg viewBox="0 0 154.5 154.5" height="154.5" width="154.5"><g><svg viewBox="0 0 154.5 154.5" height="154.5" width="154.5"><g transform="matrix(1,0,0,1,34.94742017295086,29.509500000000003)"><svg viewBox="0 0 84.60515965409829 95.481" height="95.481" width="84.60515965409829"><g><svg viewBox="0 0 84.60515965409829 95.481" height="95.481" width="84.60515965409829"><g><svg viewBox="0 0 84.60515965409829 95.481" height="95.481" width="84.60515965409829"><g id="textblocktransform"><svg viewBox="0 0 84.60515965409829 95.481" height="95.481" width="84.60515965409829" id="textblock"><g><svg viewBox="0 0 84.60515965409829 95.481" height="95.481" width="84.60515965409829"><g transform="matrix(1,0,0,1,0,0)"><svg width="84.60515965409829" viewBox="-4 -39.01 38.22 43.01" height="95.481" data-palette-color="#ffffff"><path d="M19.04-28.59L19.04-1.29Q19.04-0.56 18.74-0.28 18.43 0 17.7 0L17.7 0 12.5 0Q11.77 0 11.46-0.28 11.16-0.56 11.16-1.29L11.16-1.29 11.16-28.59 3.88-28.59Q3.3-28.59 3-28.78L3-28.78Q2.37-29.22 1.7-29.83 1.03-30.44 0.24-31.3L0.24-31.3Q0-31.62 0-31.81L0-31.81Q0-32.03 0.24-32.3L0.24-32.3Q1.03-33.15 1.7-33.76 2.37-34.38 3-34.81L3-34.81Q3.34-35.01 3.88-35.01L3.88-35.01 26.34-35.01Q26.93-35.01 27.22-34.81L27.22-34.81Q27.86-34.38 28.54-33.76 29.22-33.15 29.98-32.3L29.98-32.3Q30.22-31.98 30.22-31.79L30.22-31.79Q30.22-31.57 29.98-31.3L29.98-31.3Q29.22-30.44 28.54-29.83 27.86-29.22 27.22-28.78L27.22-28.78Q26.88-28.59 26.34-28.59L26.34-28.59 19.04-28.59Z" opacity="1" transform="matrix(1,0,0,1,0,0)" fill="#ffffff" class="wordmark-text-0" data-fill-palette-color="primary" id="text-0"></path></svg></g></svg></g></svg></g></svg></g><g></g></svg></g></svg></g></svg></g><defs></defs></svg><rect width="154.5" height="154.5" fill="none" stroke="none" visibility="hidden"></rect></g></svg></g></svg>