<svg xmlns="http://www.w3.org/2000/svg" version="1.1" xmlns:xlink="http://www.w3.org/1999/xlink" xmlns:svgjs="http://svgjs.dev/svgjs" width="1500" height="939" viewBox="0 0 1500 939"><g transform="matrix(1,0,0,1,-0.9090909090909918,-1.5145161290323017)"><svg viewBox="0 0 396 248" data-background-color="#000000" preserveAspectRatio="xMidYMid meet" height="939" width="1500" xmlns="http://www.w3.org/2000/svg" xmlns:xlink="http://www.w3.org/1999/xlink"><g id="tight-bounds" transform="matrix(1,0,0,1,0.2400000000000091,0.4000000000000057)"><svg viewBox="0 0 395.52 247.2" height="247.2" width="395.52"><g><svg viewBox="0 0 395.52 247.2" height="247.2" width="395.52"><g transform="matrix(1,0,0,1,0,67.1450691698555)"><svg viewBox="0 0 395.52 112.90986166028897" height="112.90986166028897" width="395.52"><g><svg viewBox="0 0 395.52 112.90986166028897" height="112.90986166028897" width="395.52"><g><svg viewBox="0 0 395.52 112.90986166028897" height="112.90986166028897" width="395.52"><g><svg viewBox="0 0 395.52 112.90986166028897" height="112.90986166028897" width="395.52"><g id="textblocktransform"><svg viewBox="0 0 395.52 112.90986166028897" height="112.90986166028897" width="395.52" id="textblock"><g><svg viewBox="0 0 395.52 77.29242847107913" height="77.29242847107913" width="395.52"><g transform="matrix(1,0,0,1,0,0)"><svg width="395.52" viewBox="-4 -39.86 280.41 55.6" height="77.29242847107913" data-palette-color="#ffffff"><path d="M19.04-28.59L19.04-1.29Q19.04-0.56 18.74-0.28 18.43 0 17.7 0L17.7 0 12.5 0Q11.77 0 11.46-0.28 11.16-0.56 11.16-1.29L11.16-1.29 11.16-28.59 3.88-28.59Q3.3-28.59 3-28.78L3-28.78Q2.37-29.22 1.7-29.83 1.03-30.44 0.24-31.3L0.24-31.3Q0-31.62 0-31.81L0-31.81Q0-32.03 0.24-32.3L0.24-32.3Q1.03-33.15 1.7-33.76 2.37-34.38 3-34.81L3-34.81Q3.34-35.01 3.88-35.01L3.88-35.01 26.34-35.01Q26.93-35.01 27.22-34.81L27.22-34.81Q27.86-34.38 28.54-33.76 29.22-33.15 29.98-32.3L29.98-32.3Q30.22-31.98 30.22-31.79L30.22-31.79Q30.22-31.57 29.98-31.3L29.98-31.3Q29.22-30.44 28.54-29.83 27.86-29.22 27.22-28.78L27.22-28.78Q26.88-28.59 26.34-28.59L26.34-28.59 19.04-28.59ZM41.23-22.17L41.23-20.36 41.33-20.36Q43.16-25.44 47.92-25.44L47.92-25.44Q48.53-25.44 48.92-25.38 49.31-25.32 49.46-25.27L49.46-25.27Q49.83-25.15 49.83-24.71L49.83-24.71 49.83-18.82Q49.83-18.07 48.95-18.41L48.95-18.41Q48.65-18.53 48.11-18.66 47.56-18.8 46.58-18.8L46.58-18.8Q44.06-18.8 42.65-16.96 41.23-15.11 41.23-11.94L41.23-11.94 41.23-1.29Q41.23-0.56 40.93-0.28 40.62 0 39.89 0L39.89 0 34.86 0Q34.13 0 33.82-0.28 33.52-0.56 33.52-1.29L33.52-1.29 33.52-21.75Q33.52-22.34 33.76-22.66L33.76-22.66Q34.27-23.34 35-24.05 35.72-24.76 36.77-25.56L36.77-25.56Q36.96-25.71 37.16-25.76 37.35-25.81 37.5-25.81L37.5-25.81Q37.84-25.81 38.18-25.56L38.18-25.56Q40.21-23.97 41.01-22.85L41.01-22.85Q41.23-22.56 41.23-22.17L41.23-22.17ZM65.45 0.61L65.45 0.61Q59.3 0.61 55.71-2.66 52.12-5.93 52.12-12.4L52.12-12.4Q52.12-19.04 55.84-22.33 59.57-25.61 65.79-25.61L65.79-25.61Q71.8-25.61 75.41-22.38 79.02-19.14 79.02-12.84L79.02-12.84Q79.02-6.27 75.41-2.83 71.8 0.61 65.45 0.61ZM65.69-5.3L65.69-5.3Q68.38-5.3 69.75-6.97 71.11-8.64 71.11-12.7L71.11-12.7Q71.11-16.55 69.73-18.13 68.35-19.7 65.64-19.7L65.64-19.7Q63.03-19.7 61.53-18.01 60.03-16.31 60.03-12.5L60.03-12.5Q60.03-8.52 61.46-6.91 62.89-5.3 65.69-5.3ZM85.05 11.74L85.05 11.74Q84.15 11.74 83.68 11.56 83.22 11.38 82.9 11.11L82.9 11.11Q82.27 10.5 81.54 9.4L81.54 9.4Q81.36 9.13 81.17 8.78 80.97 8.42 80.97 8.18L80.97 8.18Q80.97 7.91 81.1 7.69 81.22 7.47 81.39 7.28L81.39 7.28Q81.78 6.76 82.34 6.21 82.9 5.66 83.29 5.35L83.29 5.35Q83.56 5.13 83.73 5.07 83.9 5 84.03 5L84.03 5Q84.15 5 84.39 5.05 84.64 5.1 85.12 5.1L85.12 5.1Q86.81 5.1 88.64 4 90.47 2.91 92.25-0.12L92.25-0.12Q90.4-1.83 88.6-4.41 86.81-6.98 85.37-10 83.93-13.01 83.06-16.02 82.19-19.02 82.19-21.56L82.19-21.56Q82.19-22.09 82.46-22.41L82.46-22.41Q83.59-23.8 85.66-25.32L85.66-25.32Q86.03-25.56 86.32-25.56L86.32-25.56Q86.64-25.56 86.98-25.32L86.98-25.32Q88.1-24.51 88.87-23.8 89.64-23.1 90.18-22.41L90.18-22.41Q90.45-22.09 90.45-21.51L90.45-21.51 90.45-21.61Q90.45-19.68 90.91-17.53 91.37-15.38 92.18-13.34 92.99-11.3 93.99-9.66 94.99-8.01 96.06-7.03L96.06-7.03 96.18-7.03Q96.67-7.96 97.27-9.7 97.87-11.45 98.41-13.59 98.94-15.72 99.28-17.83 99.63-19.95 99.63-21.58L99.63-21.58 99.63-21.51Q99.63-22.09 99.87-22.41L99.87-22.41Q100.43-23.1 101.19-23.8 101.95-24.51 103.02-25.32L103.02-25.32Q103.36-25.56 103.65-25.56L103.65-25.56Q104-25.56 104.29-25.32L104.29-25.32Q105.39-24.51 106.14-23.8 106.9-23.1 107.44-22.41L107.44-22.41Q107.68-22.09 107.68-21.53L107.68-21.53Q107.66-19.31 106.83-15.73 106-12.16 104.41-7.98 102.82-3.81 100.55 0.2L100.55 0.2Q97.16 6.23 93.23 8.98 89.3 11.74 85.05 11.74ZM107.68-21.58L107.68-21.58 107.68-21.51 107.68-21.53Q107.68-21.56 107.68-21.58ZM82.19-21.51L82.19-21.58 82.19-21.56 82.19-21.51ZM130.92 0L118.79 0Q116.27 0 114.97-0.63 113.66-1.27 113.21-2.71 112.76-4.15 112.76-6.54L112.76-6.54 112.76-31.1Q112.76-31.81 113-32.18L113-32.18Q114.1-33.79 116.08-35.57L116.08-35.57Q116.45-35.86 116.71-35.86L116.71-35.86Q117.01-35.86 117.32-35.57L117.32-35.57Q118.4-34.64 119.13-33.8 119.86-32.96 120.4-32.18L120.4-32.18Q120.64-31.79 120.64-31.1L120.64-31.1 120.64-9.45Q120.64-7.81 121.23-7.1 121.82-6.4 123.43-6.4L123.43-6.4 130.92-6.42Q131.51-6.42 131.8-6.23L131.8-6.23Q132.44-5.79 133.12-5.18 133.8-4.57 134.56-3.71L134.56-3.71Q134.8-3.39 134.8-3.2L134.8-3.2Q134.8-2.98 134.56-2.71L134.56-2.71Q133.8-1.86 133.12-1.25 132.44-0.63 131.8-0.2L131.8-0.2Q131.46 0 130.92 0L130.92 0ZM149.87 0.61L149.87 0.61Q145.74 0.61 142.69-0.72 139.64-2.05 137.95-4.86 136.27-7.67 136.27-12.11L136.27-12.11Q136.27-18.77 139.68-22.19 143.1-25.61 148.77-25.61L148.77-25.61Q152.45-25.61 155-24.29 157.56-22.97 158.89-20.65 160.22-18.33 160.22-15.36L160.22-15.36Q160.22-12.45 158.73-11.3 157.24-10.16 154.38-10.16L154.38-10.16 143.91-10.16Q144.1-7.64 145.75-6.32 147.4-5 150.23-5L150.23-5Q152.48-5 153.83-5.68 155.19-6.35 155.72-6.74L155.72-6.74Q156.19-7.08 156.77-7.06L156.77-7.06Q157.24-7.06 158.11-6.87 158.97-6.69 159.83-6.2L159.83-6.2Q160.44-5.88 160.44-5.32L160.44-5.32Q160.44-5 160.31-4.42L160.31-4.42Q160.24-4.08 160.07-3.43 159.9-2.78 159.63-2.22L159.63-2.22Q159.48-1.95 159.17-1.71L159.17-1.71Q158.68-1.37 157.59-0.81 156.51-0.24 154.63 0.18 152.75 0.61 149.87 0.61ZM143.86-15.16L143.86-15.16 151.82-15.16Q153.06-15.16 153.06-16.31L153.06-16.31Q153.06-18.04 151.98-19.23 150.89-20.41 148.72-20.41L148.72-20.41Q146.35-20.41 145.24-18.9 144.13-17.38 143.86-15.16ZM189.76-22.66L189.76-22.66 189.76-2.86Q189.76 4.27 185.69 8.01 181.63 11.74 174.55 11.74L174.55 11.74Q171.62 11.74 169.91 11.32 168.2 10.89 167.32 10.5L167.32 10.5Q166.76 10.23 166.59 9.94L166.59 9.94Q166.34 9.55 166.04 8.79 165.73 8.03 165.46 7.13L165.46 7.13Q165.39 6.79 165.44 6.62L165.44 6.62Q165.54 6.37 165.81 6.1L165.81 6.1Q166.24 5.66 167.06 5.08 167.88 4.49 168.32 4.32L168.32 4.32Q168.78 4.15 169.17 4.37L169.17 4.37Q169.81 4.71 170.99 5.14 172.18 5.57 174.33 5.57L174.33 5.57Q177.74 5.57 179.89 3.81 182.04 2.05 182.04-1.61L182.04-1.61 182.04-2.49 181.94-2.49Q181.41-1.81 180.55-1.1 179.7-0.39 178.34 0.1 176.99 0.59 174.86 0.59L174.86 0.59Q171.18 0.59 168.82-1.01 166.46-2.61 165.35-5.42 164.24-8.23 164.24-11.82L164.24-11.82Q164.24-15.75 165.54-18.87 166.83-22 169.88-23.82 172.93-25.63 178.23-25.63L178.23-25.63Q181.41-25.63 183.57-25.17 185.73-24.71 187.19-24.02 188.66-23.34 189.76-22.66ZM177.96-19.73L177.96-19.73Q175.13-19.73 173.64-17.82 172.15-15.92 172.15-11.91L172.15-11.91Q172.15-5.64 177.33-5.64L177.33-5.64Q179.36-5.64 180.43-6.47 181.5-7.3 182.04-8.57L182.04-8.57 182.04-18.65Q181.5-19.04 180.53-19.38 179.55-19.73 177.96-19.73ZM202.81 0.61L202.81 0.61Q199.23 0.61 197.11-1.4 195-3.42 195-6.96L195-6.96Q195-8.79 195.67-10.36 196.34-11.94 198.02-13.15 199.69-14.36 202.7-15.09 205.72-15.82 210.41-15.94L210.41-15.94Q210.41-18.16 209.3-19.14 208.19-20.12 205.96-20.12L205.96-20.12Q203.96-20.12 202.69-19.43 201.42-18.75 201.11-18.51L201.11-18.51Q200.76-18.21 200.28-18.29L200.28-18.29Q199.62-18.38 198.87-18.63 198.13-18.87 197.27-19.19L197.27-19.19Q197.15-19.24 197-19.35 196.86-19.46 196.83-19.68L196.83-19.68Q196.83-19.8 196.86-19.98 196.88-20.17 196.98-20.65L196.98-20.65Q197.08-21.14 197.27-21.86 197.47-22.58 197.64-22.97L197.64-22.97Q197.86-23.39 198.37-23.75L198.37-23.75Q198.79-24.1 200.89-24.85 202.99-25.61 206.96-25.61L206.96-25.61Q217.93-25.61 217.93-14.94L217.93-14.94 217.93-1.12Q217.93-0.66 217.67-0.33 217.41 0 216.8 0L216.8 0 213.14 0Q212.75 0 212.45-0.11 212.14-0.22 211.87-0.54L211.87-0.54 210.36-2.49 210.19-2.49Q209.06-0.85 207.17-0.12 205.28 0.61 202.81 0.61ZM205.5-5.05L205.5-5.05Q207.75-5.05 208.89-6.2 210.04-7.35 210.36-8.57L210.36-8.57 210.36-11.28Q206.96-11.28 205.27-10.75 203.57-10.23 203.01-9.39 202.45-8.54 202.45-7.57L202.45-7.57Q202.45-6.15 203.33-5.6 204.21-5.05 205.5-5.05ZM236.97-25.61L236.97-25.61Q239.87-25.61 241.19-25.13 242.51-24.66 242.85-24.39L242.85-24.39Q243.39-24.05 243.68-23.51L243.68-23.51Q243.85-23.24 244.07-22.58 244.29-21.92 244.39-21.14L244.39-21.14Q244.51-20.53 244.41-20.28 244.32-20.02 243.8-19.65L243.8-19.65Q243.22-19.26 242.52-18.96 241.83-18.65 241.39-18.53L241.39-18.53Q241.02-18.43 240.82-18.48 240.63-18.53 240.29-18.77L240.29-18.77Q239.9-19.04 239.19-19.37 238.48-19.7 237.24-19.7L237.24-19.7Q235.65-19.7 234.22-18.92 232.79-18.14 231.9-16.58 231.01-15.01 231.01-12.67L231.01-12.67Q231.01-9.16 232.85-7.23 234.7-5.3 237.8-5.3L237.8-5.3Q239.38-5.3 240.43-5.63 241.48-5.96 242.09-6.3L242.09-6.3Q242.58-6.57 242.84-6.43 243.1-6.3 243.24-5.96L243.24-5.96 245.02-1.93Q245.29-1.29 244.73-1.03L244.73-1.03Q243.83-0.56 241.75 0.02 239.68 0.61 236.63 0.61L236.63 0.61Q230.5 0.61 226.84-2.65 223.17-5.91 223.17-12.4L223.17-12.4Q223.17-16.55 224.86-19.51 226.54-22.46 229.64-24.04 232.74-25.61 236.97-25.61ZM249.78 11.74L249.78 11.74Q248.88 11.74 248.42 11.56 247.95 11.38 247.63 11.11L247.63 11.11Q247 10.5 246.27 9.4L246.27 9.4Q246.1 9.13 245.9 8.78 245.71 8.42 245.71 8.18L245.71 8.18Q245.71 7.91 245.83 7.69 245.95 7.47 246.12 7.28L246.12 7.28Q246.51 6.76 247.07 6.21 247.63 5.66 248.02 5.35L248.02 5.35Q248.29 5.13 248.46 5.07 248.63 5 248.76 5L248.76 5Q248.88 5 249.12 5.05 249.37 5.1 249.86 5.1L249.86 5.1Q251.54 5.1 253.37 4 255.2 2.91 256.98-0.12L256.98-0.12Q255.13-1.83 253.33-4.41 251.54-6.98 250.1-10 248.66-13.01 247.79-16.02 246.93-19.02 246.93-21.56L246.93-21.56Q246.93-22.09 247.19-22.41L247.19-22.41Q248.32-23.8 250.39-25.32L250.39-25.32Q250.76-25.56 251.05-25.56L251.05-25.56Q251.37-25.56 251.71-25.32L251.71-25.32Q252.83-24.51 253.6-23.8 254.37-23.1 254.91-22.41L254.91-22.41Q255.18-22.09 255.18-21.51L255.18-21.51 255.18-21.61Q255.18-19.68 255.64-17.53 256.11-15.38 256.91-13.34 257.72-11.3 258.72-9.66 259.72-8.01 260.79-7.03L260.79-7.03 260.92-7.03Q261.4-7.96 262-9.7 262.6-11.45 263.14-13.59 263.67-15.72 264.02-17.83 264.36-19.95 264.36-21.58L264.36-21.58 264.36-21.51Q264.36-22.09 264.6-22.41L264.6-22.41Q265.16-23.1 265.92-23.8 266.68-24.51 267.75-25.32L267.75-25.32Q268.09-25.56 268.39-25.56L268.39-25.56Q268.73-25.56 269.02-25.32L269.02-25.32Q270.12-24.51 270.88-23.8 271.63-23.1 272.17-22.41L272.17-22.41Q272.41-22.09 272.41-21.53L272.41-21.53Q272.39-19.31 271.56-15.73 270.73-12.16 269.14-7.98 267.56-3.81 265.29 0.2L265.29 0.2Q261.89 6.23 257.96 8.98 254.03 11.74 249.78 11.74ZM272.41-21.58L272.41-21.58 272.41-21.51 272.41-21.53Q272.41-21.56 272.41-21.58ZM246.93-21.51L246.93-21.58 246.93-21.56 246.93-21.51Z" opacity="1" transform="matrix(1,0,0,1,0,0)" fill="#ffffff" class="wordmark-text-0" data-fill-palette-color="primary" id="text-0"></path></svg></g></svg></g><g transform="matrix(1,0,0,1,3.5,93.20028923160795)"><svg viewBox="0 0 388.52 19.70957242868101" height="19.70957242868101" width="388.52"><g transform="matrix(1,0,0,1,0,0)"><svg width="388.52" viewBox="-3.27 -37.28 992.1999999999999 51.290850697216996" height="19.70957242868101" data-palette-color="#ffffff"><path d="M26.98-28.98Q27.81-28.98 28.16-28.6 28.52-28.22 28.52-27.32L28.52-27.32Q28.52-26.42 28.16-26.04 27.81-25.66 26.98-25.66L26.98-25.66 25.76-25.66 26.39-3.32 27.71-3.32Q28.54-3.32 28.89-2.94 29.25-2.56 29.25-1.66L29.25-1.66Q29.25-0.76 28.89-0.38 28.54 0 27.71 0L27.71 0 20.04 0Q19.21 0 18.86-0.38 18.51-0.76 18.51-1.66L18.51-1.66Q18.51-2.56 18.86-2.94 19.21-3.32 20.04-3.32L20.04-3.32 22.75-3.32 22.22-23.32 17.24-9.4Q16.92-8.54 16.39-8.18 15.87-7.81 14.99-7.81L14.99-7.81Q14.11-7.81 13.59-8.18 13.06-8.54 12.74-9.4L12.74-9.4 7.74-23.32 7.23-3.32 9.94-3.32Q10.77-3.32 11.12-2.94 11.47-2.56 11.47-1.66L11.47-1.66Q11.47-0.76 11.12-0.38 10.77 0 9.94 0L9.94 0 2.27 0Q1.44 0 1.09-0.38 0.73-0.76 0.73-1.66L0.73-1.66Q0.73-2.56 1.09-2.94 1.44-3.32 2.27-3.32L2.27-3.32 3.59-3.32 4.2-25.66 3-25.66Q2.17-25.66 1.82-26.04 1.46-26.42 1.46-27.32L1.46-27.32Q1.46-28.22 1.82-28.6 2.17-28.98 3-28.98L3-28.98 8.15-28.98Q8.74-28.98 9.08-28.78 9.42-28.59 9.57-28.17L9.57-28.17 14.99-13.31 20.39-28.17Q20.65-28.98 21.83-28.98L21.83-28.98 26.98-28.98ZM57.2-22.56Q58.03-22.56 58.38-22.18 58.74-21.8 58.74-20.9L58.74-20.9Q58.74-20 58.38-19.62 58.03-19.24 57.2-19.24L57.2-19.24 55.69-19.24 45.7 1.22Q44.11 4.47 42.6 6.32 41.09 8.18 39.19 9.05 37.3 9.91 34.59 10.01L34.59 10.01Q33.74 10.03 33.27 9.58 32.81 9.13 32.81 7.98L32.81 7.98Q32.81 6.4 34.1 6.32L34.1 6.32Q36.45 6.2 37.83 5.54 39.21 4.88 40.37 3.28 41.53 1.68 43.21-1.71L43.21-1.71 34.27-19.24 32.74-19.24Q31.91-19.24 31.55-19.62 31.2-20 31.2-20.9L31.2-20.9Q31.2-21.8 31.55-22.18 31.91-22.56 32.74-22.56L32.74-22.56 41.38-22.56Q42.21-22.56 42.56-22.18 42.92-21.8 42.92-20.9L42.92-20.9Q42.92-20 42.56-19.62 42.21-19.24 41.38-19.24L41.38-19.24 38.25-19.24 45.14-5.52 51.71-19.24 49.53-19.24Q48.7-19.24 48.35-19.62 48-20 48-20.9L48-20.9Q48-21.8 48.35-22.18 48.7-22.56 49.53-22.56L49.53-22.56 57.2-22.56ZM82.64-23.1Q83.64-23.1 84.05-22.73 84.47-22.36 84.47-21.51L84.47-21.51 84.47-16.87Q84.47-16.02 84.05-15.65 83.64-15.28 82.64-15.28L82.64-15.28Q81.81-15.28 81.46-15.92L81.46-15.92Q80.41-17.92 78.41-18.74 76.41-19.56 73.33-19.56L73.33-19.56Q70.97-19.56 69.64-18.71 68.31-17.87 68.31-16.36L68.31-16.36Q68.31-15.58 68.81-15.09 69.31-14.6 70.28-14.28L70.28-14.28Q71.09-14.01 72.15-13.87 73.21-13.72 74.9-13.55L74.9-13.55Q77.27-13.28 78.72-13.05 80.17-12.82 81.46-12.35L81.46-12.35Q83.42-11.65 84.5-10.3 85.59-8.96 85.59-6.76L85.59-6.76Q85.59-4.57 84.48-2.92 83.37-1.27 81.23-0.37 79.1 0.54 76.12 0.54L76.12 0.54Q73.48 0.54 71.48-0.2 69.48-0.93 67.99-2.42L67.99-2.42 67.99-1.05Q67.99-0.2 67.57 0.17 67.16 0.54 66.16 0.54L66.16 0.54Q65.16 0.54 64.74 0.17 64.33-0.2 64.33-1.05L64.33-1.05 64.33-6.91Q64.33-7.76 64.74-8.13 65.16-8.5 66.16-8.5L66.16-8.5Q66.67-8.5 66.96-8.26 67.26-8.03 67.48-7.5L67.48-7.5Q68.35-5.15 70.41-4.08 72.46-3 75.87-3L75.87-3Q78.71-3 80.22-4.03 81.73-5.05 81.73-6.76L81.73-6.76Q81.73-7.59 81.2-8.13 80.66-8.67 79.66-9.01L79.66-9.01Q78.8-9.28 77.69-9.46 76.58-9.64 74.87-9.81L74.87-9.81Q72.58-10.06 71.04-10.33 69.5-10.6 68.21-11.11L68.21-11.11Q66.43-11.82 65.44-13.07 64.45-14.33 64.45-16.36L64.45-16.36Q64.45-18.48 65.56-20.01 66.67-21.53 68.64-22.31 70.6-23.1 73.09-23.1L73.09-23.1Q75.46-23.1 77.42-22.39 79.39-21.68 80.81-20.41L80.81-20.41 80.81-21.51Q80.81-22.36 81.22-22.73 81.64-23.1 82.64-23.1L82.64-23.1ZM101.12-29.52Q102.12-29.52 102.53-29.15 102.95-28.78 102.95-27.93L102.95-27.93 102.95-20.61 112.98-20.61Q113.81-20.61 114.16-20.23 114.52-19.85 114.52-18.95L114.52-18.95Q114.52-18.04 114.16-17.66 113.81-17.29 112.98-17.29L112.98-17.29 102.95-17.29 102.95-8.4Q102.95-5.62 103.91-4.32 104.88-3.03 107.27-3.03L107.27-3.03Q108.9-3.03 110.71-3.69 112.52-4.35 114.2-5.44L114.2-5.44Q114.54-5.69 114.96-5.69L114.96-5.69Q115.79-5.69 116.37-4.57L116.37-4.57Q116.69-3.93 116.69-3.47L116.69-3.47Q116.69-2.69 115.89-2.2L115.89-2.2Q113.98-1 111.64-0.23 109.29 0.54 107.27 0.54L107.27 0.54Q103.12 0.54 101.2-1.62 99.28-3.78 99.28-8.08L99.28-8.08 99.28-17.29 94.33-17.29Q93.5-17.29 93.14-17.66 92.79-18.04 92.79-18.95L92.79-18.95Q92.79-19.85 93.14-20.23 93.5-20.61 94.33-20.61L94.33-20.61 99.28-20.61 99.28-27.93Q99.28-28.78 99.7-29.15 100.11-29.52 101.12-29.52L101.12-29.52ZM135.12-23.1Q138.66-23.1 141.16-21.67 143.67-20.24 145.01-17.71 146.35-15.19 146.55-11.89L146.55-11.89Q146.55-11.06 146.19-10.72 145.84-10.38 145.01-10.38L145.01-10.38 127.33-10.38Q127.5-6.74 129.49-4.87 131.48-3 135.12-3L135.12-3Q137.37-3 139.57-3.58 141.76-4.15 143.42-5.1L143.42-5.1Q143.84-5.32 144.18-5.32L144.18-5.32Q145.03-5.32 145.57-4.03L145.57-4.03Q145.79-3.52 145.79-3.1L145.79-3.1Q145.79-2.12 144.72-1.59L144.72-1.59Q142.84-0.63 140.27-0.05 137.71 0.54 135.12 0.54L135.12 0.54Q131.44 0.54 128.82-0.88 126.21-2.29 124.84-4.96 123.48-7.62 123.48-11.28L123.48-11.28Q123.48-14.77 124.97-17.46 126.45-20.14 129.09-21.62 131.73-23.1 135.12-23.1L135.12-23.1ZM135.12-19.56Q132.12-19.56 130.15-18.03 128.19-16.5 127.58-13.79L127.58-13.79 142.49-13.79Q141.98-16.6 140.14-18.08 138.3-19.56 135.12-19.56L135.12-19.56ZM172.35-23.1Q174.26-23.1 175.92-22.12L175.92-22.12Q176.89-21.53 176.89-20.61L176.89-20.61Q176.89-20.17 176.67-19.58L176.67-19.58Q176.16-18.19 175.26-18.19L175.26-18.19Q174.89-18.19 174.57-18.38L174.57-18.38Q173.38-19.04 172.01-19.04L172.01-19.04Q169.81-19.04 167.59-17.52 165.37-15.99 163.94-13.45 162.51-10.91 162.51-8.06L162.51-8.06 162.51-3.32 170.74-3.32Q171.57-3.32 171.92-2.94 172.28-2.56 172.28-1.66L172.28-1.66Q172.28-0.76 171.92-0.38 171.57 0 170.74 0L170.74 0 155.02 0Q154.19 0 153.83-0.38 153.48-0.76 153.48-1.66L153.48-1.66Q153.48-2.56 153.83-2.94 154.19-3.32 155.02-3.32L155.02-3.32 158.85-3.32 158.85-19.24 155.75-19.24Q154.92-19.24 154.57-19.62 154.21-20 154.21-20.9L154.21-20.9Q154.21-21.8 154.57-22.18 154.92-22.56 155.75-22.56L155.75-22.56 160.73-22.56Q161.56-22.56 161.91-22.18 162.27-21.8 162.27-20.9L162.27-20.9 162.27-15.97Q163.44-18.12 165.1-19.73 166.76-21.34 168.64-22.22 170.52-23.1 172.35-23.1L172.35-23.1ZM207.09-22.56Q207.92-22.56 208.27-22.18 208.63-21.8 208.63-20.9L208.63-20.9Q208.63-20 208.27-19.62 207.92-19.24 207.09-19.24L207.09-19.24 205.58-19.24 195.59 1.22Q194 4.47 192.49 6.32 190.98 8.18 189.08 9.05 187.19 9.91 184.48 10.01L184.48 10.01Q183.63 10.03 183.16 9.58 182.7 9.13 182.7 7.98L182.7 7.98Q182.7 6.4 183.99 6.32L183.99 6.32Q186.34 6.2 187.72 5.54 189.1 4.88 190.26 3.28 191.42 1.68 193.1-1.71L193.1-1.71 184.16-19.24 182.63-19.24Q181.8-19.24 181.44-19.62 181.09-20 181.09-20.9L181.09-20.9Q181.09-21.8 181.44-22.18 181.8-22.56 182.63-22.56L182.63-22.56 191.27-22.56Q192.1-22.56 192.45-22.18 192.81-21.8 192.81-20.9L192.81-20.9Q192.81-20 192.45-19.62 192.1-19.24 191.27-19.24L191.27-19.24 188.14-19.24 195.03-5.52 201.6-19.24 199.42-19.24Q198.59-19.24 198.24-19.62 197.89-20 197.89-20.9L197.89-20.9Q197.89-21.8 198.24-22.18 198.59-22.56 199.42-22.56L199.42-22.56 207.09-22.56ZM246.88-32.03Q247.71-32.03 248.06-31.65 248.42-31.27 248.42-30.37L248.42-30.37 248.42-19.07Q251.57-23.1 256.16-23.1L256.16-23.1Q259.18-23.1 261.58-21.67 263.97-20.24 265.34-17.57 266.7-14.89 266.7-11.28L266.7-11.28Q266.7-7.67 265.34-4.99 263.97-2.32 261.58-0.89 259.18 0.54 256.16 0.54L256.16 0.54Q253.76 0.54 251.74-0.54 249.71-1.61 248.17-3.61L248.17-3.61 248.17-1.66Q248.17-0.76 247.82-0.38 247.47 0 246.64 0L246.64 0 242.75 0Q241.92 0 241.57-0.38 241.22-0.76 241.22-1.66L241.22-1.66Q241.22-2.56 241.57-2.94 241.92-3.32 242.75-3.32L242.75-3.32 244.76-3.32 244.76-28.71 242.27-28.71Q241.44-28.71 241.08-29.09 240.73-29.47 240.73-30.37L240.73-30.37Q240.73-31.27 241.08-31.65 241.44-32.03 242.27-32.03L242.27-32.03 246.88-32.03ZM255.91-19.48Q253.74-19.48 252.04-18.51 250.35-17.53 249.38-15.67 248.42-13.82 248.42-11.28L248.42-11.28Q248.42-8.74 249.38-6.88 250.35-5.03 252.04-4.05 253.74-3.08 255.91-3.08L255.91-3.08Q258.09-3.08 259.65-4.11 261.21-5.15 262.03-7.01 262.85-8.86 262.85-11.28L262.85-11.28Q262.85-13.7 262.03-15.55 261.21-17.41 259.65-18.44 258.09-19.48 255.91-19.48L255.91-19.48ZM285.01-23.1Q288.55-23.1 291.05-21.67 293.56-20.24 294.9-17.71 296.24-15.19 296.44-11.89L296.44-11.89Q296.44-11.06 296.08-10.72 295.73-10.38 294.9-10.38L294.9-10.38 277.22-10.38Q277.39-6.74 279.38-4.87 281.37-3 285.01-3L285.01-3Q287.26-3 289.46-3.58 291.65-4.15 293.31-5.1L293.31-5.1Q293.73-5.32 294.07-5.32L294.07-5.32Q294.92-5.32 295.46-4.03L295.46-4.03Q295.68-3.52 295.68-3.1L295.68-3.1Q295.68-2.12 294.61-1.59L294.61-1.59Q292.73-0.63 290.16-0.05 287.6 0.54 285.01 0.54L285.01 0.54Q281.33 0.54 278.71-0.88 276.1-2.29 274.73-4.96 273.37-7.62 273.37-11.28L273.37-11.28Q273.37-14.77 274.86-17.46 276.34-20.14 278.98-21.62 281.62-23.1 285.01-23.1L285.01-23.1ZM285.01-19.56Q282.01-19.56 280.04-18.03 278.08-16.5 277.47-13.79L277.47-13.79 292.38-13.79Q291.87-16.6 290.03-18.08 288.19-19.56 285.01-19.56L285.01-19.56ZM327-22.56Q327.83-22.56 328.19-22.18 328.54-21.8 328.54-20.9L328.54-20.9Q328.54-20 328.19-19.62 327.83-19.24 327-19.24L327-19.24 325.49-19.24 315.5 1.22Q313.92 4.47 312.4 6.32 310.89 8.18 309 9.05 307.1 9.91 304.39 10.01L304.39 10.01Q303.54 10.03 303.08 9.58 302.61 9.13 302.61 7.98L302.61 7.98Q302.61 6.4 303.91 6.32L303.91 6.32Q306.25 6.2 307.63 5.54 309.01 4.88 310.17 3.28 311.33 1.68 313.01-1.71L313.01-1.71 304.08-19.24 302.54-19.24Q301.71-19.24 301.35-19.62 301-20 301-20.9L301-20.9Q301-21.8 301.35-22.18 301.71-22.56 302.54-22.56L302.54-22.56 311.18-22.56Q312.01-22.56 312.37-22.18 312.72-21.8 312.72-20.9L312.72-20.9Q312.72-20 312.37-19.62 312.01-19.24 311.18-19.24L311.18-19.24 308.06-19.24 314.94-5.52 321.51-19.24 319.34-19.24Q318.51-19.24 318.15-19.62 317.8-20 317.8-20.9L317.8-20.9Q317.8-21.8 318.15-22.18 318.51-22.56 319.34-22.56L319.34-22.56 327-22.56ZM344.75-23.1Q348.09-23.1 350.78-21.58 353.46-20.07 354.99-17.37 356.52-14.67 356.52-11.28L356.52-11.28Q356.52-7.89 354.99-5.19 353.46-2.49 350.78-0.98 348.09 0.54 344.75 0.54L344.75 0.54Q341.4 0.54 338.72-0.98 336.03-2.49 334.51-5.19 332.98-7.89 332.98-11.28L332.98-11.28Q332.98-14.67 334.51-17.37 336.03-20.07 338.72-21.58 341.4-23.1 344.75-23.1L344.75-23.1ZM344.75-19.48Q342.38-19.48 340.59-18.44 338.79-17.41 337.81-15.54 336.84-13.67 336.84-11.28L336.84-11.28Q336.84-8.89 337.81-7.02 338.79-5.15 340.59-4.11 342.38-3.08 344.75-3.08L344.75-3.08Q347.12-3.08 348.91-4.11 350.7-5.15 351.68-7.02 352.66-8.89 352.66-11.28L352.66-11.28Q352.66-13.67 351.68-15.54 350.7-17.41 348.91-18.44 347.12-19.48 344.75-19.48L344.75-19.48ZM377.48-23.1Q379.71-23.1 381.34-22.13 382.98-21.17 383.86-19.36 384.74-17.55 384.74-15.14L384.74-15.14 384.74-3.32 386.74-3.32Q387.57-3.32 387.92-2.94 388.28-2.56 388.28-1.66L388.28-1.66Q388.28-0.76 387.92-0.38 387.57 0 386.74 0L386.74 0 378.83 0Q378 0 377.64-0.38 377.29-0.76 377.29-1.66L377.29-1.66Q377.29-2.56 377.64-2.94 378-3.32 378.83-3.32L378.83-3.32 381.07-3.32 381.07-14.77Q381.07-16.94 380.07-18.21 379.07-19.48 377.12-19.48L377.12-19.48Q375.04-19.48 373.25-18.29 371.45-17.09 370.38-14.99 369.31-12.89 369.31-10.3L369.31-10.3 369.31-3.32 371.55-3.32Q372.38-3.32 372.74-2.94 373.09-2.56 373.09-1.66L373.09-1.66Q373.09-0.76 372.74-0.38 372.38 0 371.55 0L371.55 0 363.64 0Q362.81 0 362.46-0.38 362.1-0.76 362.1-1.66L362.1-1.66Q362.1-2.56 362.46-2.94 362.81-3.32 363.64-3.32L363.64-3.32 365.64-3.32 365.64-19.24 363.15-19.24Q362.32-19.24 361.97-19.62 361.62-20 361.62-20.9L361.62-20.9Q361.62-21.8 361.97-22.18 362.32-22.56 363.15-22.56L363.15-22.56 367.52-22.56Q368.35-22.56 368.71-22.18 369.06-21.8 369.06-20.9L369.06-20.9 369.06-17.97Q370.67-20.46 372.83-21.78 374.99-23.1 377.48-23.1L377.48-23.1ZM413.22-32.03Q414.05-32.03 414.41-31.65 414.76-31.27 414.76-30.37L414.76-30.37 414.76-3.32 416.76-3.32Q417.59-3.32 417.95-2.94 418.3-2.56 418.3-1.66L418.3-1.66Q418.3-0.76 417.95-0.38 417.59 0 416.76 0L416.76 0 412.88 0Q412.05 0 411.7-0.38 411.34-0.76 411.34-1.66L411.34-1.66 411.34-3.61Q409.81-1.61 407.78-0.54 405.75 0.54 403.36 0.54L403.36 0.54Q400.33 0.54 397.94-0.89 395.55-2.32 394.18-4.99 392.81-7.67 392.81-11.28L392.81-11.28Q392.81-14.89 394.18-17.57 395.55-20.24 397.94-21.67 400.33-23.1 403.36-23.1L403.36-23.1Q407.95-23.1 411.1-19.07L411.1-19.07 411.1-28.71 407.15-28.71Q406.32-28.71 405.96-29.09 405.61-29.47 405.61-30.37L405.61-30.37Q405.61-31.27 405.96-31.65 406.32-32.03 407.15-32.03L407.15-32.03 413.22-32.03ZM403.61-19.48Q401.43-19.48 399.87-18.44 398.31-17.41 397.49-15.55 396.67-13.7 396.67-11.28L396.67-11.28Q396.67-8.86 397.49-7.01 398.31-5.15 399.87-4.11 401.43-3.08 403.61-3.08L403.61-3.08Q405.78-3.08 407.47-4.05 409.17-5.03 410.14-6.88 411.1-8.74 411.1-11.28L411.1-11.28Q411.1-13.82 410.14-15.67 409.17-17.53 407.47-18.51 405.78-19.48 403.61-19.48L403.61-19.48ZM472.35-23.1Q473.35-23.1 473.77-22.73 474.18-22.36 474.18-21.51L474.18-21.51 474.18-16.87Q474.18-16.02 473.77-15.65 473.35-15.28 472.35-15.28L472.35-15.28Q471.52-15.28 471.18-15.92L471.18-15.92Q470.13-17.92 468.13-18.74 466.12-19.56 463.05-19.56L463.05-19.56Q460.68-19.56 459.35-18.71 458.02-17.87 458.02-16.36L458.02-16.36Q458.02-15.58 458.52-15.09 459.02-14.6 460-14.28L460-14.28Q460.8-14.01 461.86-13.87 462.93-13.72 464.61-13.55L464.61-13.55Q466.98-13.28 468.43-13.05 469.88-12.82 471.18-12.35L471.18-12.35Q473.13-11.65 474.22-10.3 475.3-8.96 475.3-6.76L475.3-6.76Q475.3-4.57 474.19-2.92 473.08-1.27 470.95-0.37 468.81 0.54 465.83 0.54L465.83 0.54Q463.19 0.54 461.19-0.2 459.19-0.93 457.7-2.42L457.7-2.42 457.7-1.05Q457.7-0.2 457.29 0.17 456.87 0.54 455.87 0.54L455.87 0.54Q454.87 0.54 454.45 0.17 454.04-0.2 454.04-1.05L454.04-1.05 454.04-6.91Q454.04-7.76 454.45-8.13 454.87-8.5 455.87-8.5L455.87-8.5Q456.38-8.5 456.68-8.26 456.97-8.03 457.19-7.5L457.19-7.5Q458.07-5.15 460.12-4.08 462.17-3 465.59-3L465.59-3Q468.42-3 469.93-4.03 471.45-5.05 471.45-6.76L471.45-6.76Q471.45-7.59 470.91-8.13 470.37-8.67 469.37-9.01L469.37-9.01Q468.52-9.28 467.41-9.46 466.3-9.64 464.59-9.81L464.59-9.81Q462.29-10.06 460.75-10.33 459.22-10.6 457.92-11.11L457.92-11.11Q456.14-11.82 455.15-13.07 454.16-14.33 454.16-16.36L454.16-16.36Q454.16-18.48 455.27-20.01 456.38-21.53 458.35-22.31 460.31-23.1 462.8-23.1L462.8-23.1Q465.17-23.1 467.14-22.39 469.1-21.68 470.52-20.41L470.52-20.41 470.52-21.51Q470.52-22.36 470.93-22.73 471.35-23.1 472.35-23.1L472.35-23.1ZM494.64-23.1Q497.98-23.1 500.67-21.58 503.35-20.07 504.88-17.37 506.41-14.67 506.41-11.28L506.41-11.28Q506.41-7.89 504.88-5.19 503.35-2.49 500.67-0.98 497.98 0.54 494.64 0.54L494.64 0.54Q491.29 0.54 488.61-0.98 485.92-2.49 484.4-5.19 482.87-7.89 482.87-11.28L482.87-11.28Q482.87-14.67 484.4-17.37 485.92-20.07 488.61-21.58 491.29-23.1 494.64-23.1L494.64-23.1ZM494.64-19.48Q492.27-19.48 490.48-18.44 488.68-17.41 487.7-15.54 486.73-13.67 486.73-11.28L486.73-11.28Q486.73-8.89 487.7-7.02 488.68-5.15 490.48-4.11 492.27-3.08 494.64-3.08L494.64-3.08Q497.01-3.08 498.8-4.11 500.59-5.15 501.57-7.02 502.55-8.89 502.55-11.28L502.55-11.28Q502.55-13.67 501.57-15.54 500.59-17.41 498.8-18.44 497.01-19.48 494.64-19.48L494.64-19.48ZM529.16-32.15Q532.43-32.15 535.65-30.91L535.65-30.91Q536.82-30.47 536.82-29.3L536.82-29.3Q536.82-29.03 536.75-28.66L536.75-28.66Q536.41-27.27 535.53-27.27L535.53-27.27Q535.26-27.27 534.94-27.39L534.94-27.39Q531.84-28.59 529.16-28.59L529.16-28.59Q524.23-28.59 524.23-23.29L524.23-23.29 524.23-20.61 532.67-20.61Q533.5-20.61 533.86-20.23 534.21-19.85 534.21-18.95L534.21-18.95Q534.21-18.04 533.86-17.66 533.5-17.29 532.67-17.29L532.67-17.29 524.23-17.29 524.23-3.32 532.67-3.32Q533.5-3.32 533.86-2.94 534.21-2.56 534.21-1.66L534.21-1.66Q534.21-0.76 533.86-0.38 533.5 0 532.67 0L532.67 0 515.73 0Q514.9 0 514.54-0.38 514.19-0.76 514.19-1.66L514.19-1.66Q514.19-2.56 514.54-2.94 514.9-3.32 515.73-3.32L515.73-3.32 520.56-3.32 520.56-17.29 515.73-17.29Q514.9-17.29 514.54-17.66 514.19-18.04 514.19-18.95L514.19-18.95Q514.19-19.85 514.54-20.23 514.9-20.61 515.73-20.61L515.73-20.61 520.56-20.61 520.56-23.61Q520.56-27.64 522.82-29.9 525.08-32.15 529.16-32.15L529.16-32.15ZM550.79-29.52Q551.79-29.52 552.2-29.15 552.62-28.78 552.62-27.93L552.62-27.93 552.62-20.61 562.65-20.61Q563.48-20.61 563.83-20.23 564.19-19.85 564.19-18.95L564.19-18.95Q564.19-18.04 563.83-17.66 563.48-17.29 562.65-17.29L562.65-17.29 552.62-17.29 552.62-8.4Q552.62-5.62 553.58-4.32 554.54-3.03 556.94-3.03L556.94-3.03Q558.57-3.03 560.38-3.69 562.19-4.35 563.87-5.44L563.87-5.44Q564.21-5.69 564.63-5.69L564.63-5.69Q565.46-5.69 566.04-4.57L566.04-4.57Q566.36-3.93 566.36-3.47L566.36-3.47Q566.36-2.69 565.56-2.2L565.56-2.2Q563.65-1 561.31-0.23 558.96 0.54 556.94 0.54L556.94 0.54Q552.79 0.54 550.87-1.62 548.95-3.78 548.95-8.08L548.95-8.08 548.95-17.29 544-17.29Q543.17-17.29 542.81-17.66 542.46-18.04 542.46-18.95L542.46-18.95Q542.46-19.85 542.81-20.23 543.17-20.61 544-20.61L544-20.61 548.95-20.61 548.95-27.93Q548.95-28.78 549.37-29.15 549.78-29.52 550.79-29.52L550.79-29.52ZM598.27-22.56Q599.1-22.56 599.45-22.18 599.81-21.8 599.81-20.9L599.81-20.9Q599.81-20 599.45-19.62 599.1-19.24 598.27-19.24L598.27-19.24 597.68-19.24 592.87-1.05Q592.63-0.17 592.15 0.18 591.68 0.54 590.75 0.54L590.75 0.54Q589.7 0.54 589.1 0.16 588.5-0.22 588.21-1.05L588.21-1.05 584.47-11.65 580.69-1.05Q580.4-0.22 579.77 0.16 579.15 0.54 578.1 0.54L578.1 0.54Q577.17 0.54 576.71 0.18 576.25-0.17 576.03-1.05L576.03-1.05 571.31-19.24 570.88-19.24Q570.05-19.24 569.69-19.62 569.34-20 569.34-20.9L569.34-20.9Q569.34-21.8 569.69-22.18 570.05-22.56 570.88-22.56L570.88-22.56 578.05-22.56Q578.88-22.56 579.24-22.18 579.59-21.8 579.59-20.9L579.59-20.9Q579.59-20 579.24-19.62 578.88-19.24 578.05-19.24L578.05-19.24 575.05-19.24 578.57-5.03 582.64-16.36Q582.81-16.87 583.28-17.19 583.74-17.5 584.5-17.5L584.5-17.5Q586.04-17.5 586.38-16.53L586.38-16.53 590.43-5.03 594.04-19.24 591.58-19.24Q590.75-19.24 590.39-19.62 590.04-20 590.04-20.9L590.04-20.9Q590.04-21.8 590.39-22.18 590.75-22.56 591.58-22.56L591.58-22.56 598.27-22.56ZM614.65-23.1Q619.24-23.1 621.53-21.04 623.83-18.99 623.83-14.97L623.83-14.97 623.83-5.25Q623.83-3.32 625.44-3.32L625.44-3.32 626.29-3.32Q627.12-3.32 627.48-2.94 627.83-2.56 627.83-1.66L627.83-1.66Q627.83-0.76 627.48-0.38 627.12 0 626.29 0L626.29 0 624.73 0Q623.14 0 622.01-0.79 620.87-1.59 620.53-3.13L620.53-3.13Q618.53-1.37 616.2-0.42 613.87 0.54 611.25 0.54L611.25 0.54Q608.79 0.54 606.9-0.31 605-1.15 603.93-2.76 602.86-4.37 602.86-6.59L602.86-6.59Q602.86-10.45 605.61-12.29 608.37-14.14 612.74-14.14L612.74-14.14Q616.62-14.14 620.16-12.89L620.16-12.89 620.16-14.97Q620.16-17.33 618.83-18.44 617.5-19.56 614.55-19.56L614.55-19.56Q612.72-19.56 610.74-19.04 608.76-18.53 606.98-17.63L606.98-17.63Q606.57-17.41 606.22-17.41L606.22-17.41Q605.42-17.41 604.88-18.58L604.88-18.58Q604.61-19.17 604.61-19.56L604.61-19.56Q604.61-20.41 605.52-20.87L605.52-20.87Q607.57-21.95 609.92-22.52 612.28-23.1 614.65-23.1L614.65-23.1ZM612.77-10.69Q609.96-10.69 608.34-9.73 606.71-8.76 606.71-6.67L606.71-6.67Q606.71-4.88 607.95-3.89 609.18-2.91 611.4-2.91L611.4-2.91Q616.26-2.91 620.16-6.93L620.16-6.93 620.16-9.59Q618.5-10.13 616.6-10.41 614.7-10.69 612.77-10.69L612.77-10.69ZM652-23.1Q653.9-23.1 655.56-22.12L655.56-22.12Q656.54-21.53 656.54-20.61L656.54-20.61Q656.54-20.17 656.32-19.58L656.32-19.58Q655.81-18.19 654.9-18.19L654.9-18.19Q654.54-18.19 654.22-18.38L654.22-18.38Q653.02-19.04 651.66-19.04L651.66-19.04Q649.46-19.04 647.24-17.52 645.02-15.99 643.59-13.45 642.16-10.91 642.16-8.06L642.16-8.06 642.16-3.32 650.39-3.32Q651.22-3.32 651.57-2.94 651.93-2.56 651.93-1.66L651.93-1.66Q651.93-0.76 651.57-0.38 651.22 0 650.39 0L650.39 0 634.66 0Q633.83 0 633.48-0.38 633.13-0.76 633.13-1.66L633.13-1.66Q633.13-2.56 633.48-2.94 633.83-3.32 634.66-3.32L634.66-3.32 638.5-3.32 638.5-19.24 635.4-19.24Q634.57-19.24 634.21-19.62 633.86-20 633.86-20.9L633.86-20.9Q633.86-21.8 634.21-22.18 634.57-22.56 635.4-22.56L635.4-22.56 640.38-22.56Q641.21-22.56 641.56-22.18 641.92-21.8 641.92-20.9L641.92-20.9 641.92-15.97Q643.09-18.12 644.75-19.73 646.41-21.34 648.29-22.22 650.17-23.1 652-23.1L652-23.1ZM674.73-23.1Q678.27-23.1 680.77-21.67 683.27-20.24 684.61-17.71 685.96-15.19 686.15-11.89L686.15-11.89Q686.15-11.06 685.8-10.72 685.44-10.38 684.61-10.38L684.61-10.38 666.94-10.38Q667.11-6.74 669.1-4.87 671.09-3 674.73-3L674.73-3Q676.97-3 679.17-3.58 681.37-4.15 683.03-5.1L683.03-5.1Q683.44-5.32 683.78-5.32L683.78-5.32Q684.64-5.32 685.17-4.03L685.17-4.03Q685.39-3.52 685.39-3.1L685.39-3.1Q685.39-2.12 684.32-1.59L684.32-1.59Q682.44-0.63 679.88-0.05 677.31 0.54 674.73 0.54L674.73 0.54Q671.04 0.54 668.43-0.88 665.81-2.29 664.45-4.96 663.08-7.62 663.08-11.28L663.08-11.28Q663.08-14.77 664.57-17.46 666.06-20.14 668.69-21.62 671.33-23.1 674.73-23.1L674.73-23.1ZM674.73-19.56Q671.72-19.56 669.76-18.03 667.79-16.5 667.18-13.79L667.18-13.79 682.1-13.79Q681.59-16.6 679.74-18.08 677.9-19.56 674.73-19.56L674.73-19.56ZM742.15-23.1Q743.15-23.1 743.57-22.73 743.98-22.36 743.98-21.51L743.98-21.51 743.98-16.87Q743.98-16.02 743.57-15.65 743.15-15.28 742.15-15.28L742.15-15.28Q741.32-15.28 740.98-15.92L740.98-15.92Q739.93-17.92 737.93-18.74 735.93-19.56 732.85-19.56L732.85-19.56Q730.48-19.56 729.15-18.71 727.82-17.87 727.82-16.36L727.82-16.36Q727.82-15.58 728.32-15.09 728.82-14.6 729.8-14.28L729.8-14.28Q730.6-14.01 731.67-13.87 732.73-13.72 734.41-13.55L734.41-13.55Q736.78-13.28 738.23-13.05 739.69-12.82 740.98-12.35L740.98-12.35Q742.93-11.65 744.02-10.3 745.11-8.96 745.11-6.76L745.11-6.76Q745.11-4.57 744-2.92 742.88-1.27 740.75-0.37 738.61 0.54 735.63 0.54L735.63 0.54Q733 0.54 730.99-0.2 728.99-0.93 727.5-2.42L727.5-2.42 727.5-1.05Q727.5-0.2 727.09 0.17 726.67 0.54 725.67 0.54L725.67 0.54Q724.67 0.54 724.26 0.17 723.84-0.2 723.84-1.05L723.84-1.05 723.84-6.91Q723.84-7.76 724.26-8.13 724.67-8.5 725.67-8.5L725.67-8.5Q726.19-8.5 726.48-8.26 726.77-8.03 726.99-7.5L726.99-7.5Q727.87-5.15 729.92-4.08 731.97-3 735.39-3L735.39-3Q738.22-3 739.73-4.03 741.25-5.05 741.25-6.76L741.25-6.76Q741.25-7.59 740.71-8.13 740.17-8.67 739.17-9.01L739.17-9.01Q738.32-9.28 737.21-9.46 736.1-9.64 734.39-9.81L734.39-9.81Q732.09-10.06 730.56-10.33 729.02-10.6 727.72-11.11L727.72-11.11Q725.94-11.82 724.95-13.07 723.96-14.33 723.96-16.36L723.96-16.36Q723.96-18.48 725.07-20.01 726.19-21.53 728.15-22.31 730.12-23.1 732.61-23.1L732.61-23.1Q734.97-23.1 736.94-22.39 738.9-21.68 740.32-20.41L740.32-20.41 740.32-21.51Q740.32-22.36 740.74-22.73 741.15-23.1 742.15-23.1L742.15-23.1ZM764.44-23.1Q767.78-23.1 770.47-21.58 773.16-20.07 774.68-17.37 776.21-14.67 776.21-11.28L776.21-11.28Q776.21-7.89 774.68-5.19 773.16-2.49 770.47-0.98 767.78 0.54 764.44 0.54L764.44 0.54Q761.09 0.54 758.41-0.98 755.72-2.49 754.2-5.19 752.67-7.89 752.67-11.28L752.67-11.28Q752.67-14.67 754.2-17.37 755.72-20.07 758.41-21.58 761.09-23.1 764.44-23.1L764.44-23.1ZM764.44-19.48Q762.07-19.48 760.28-18.44 758.48-17.41 757.51-15.54 756.53-13.67 756.53-11.28L756.53-11.28Q756.53-8.89 757.51-7.02 758.48-5.15 760.28-4.11 762.07-3.08 764.44-3.08L764.44-3.08Q766.81-3.08 768.6-4.11 770.4-5.15 771.37-7.02 772.35-8.89 772.35-11.28L772.35-11.28Q772.35-13.67 771.37-15.54 770.4-17.41 768.6-18.44 766.81-19.48 764.44-19.48L764.44-19.48ZM795.05-32.03Q795.88-32.03 796.24-31.65 796.59-31.27 796.59-30.37L796.59-30.37 796.59-3.32 804.43-3.32Q805.26-3.32 805.61-2.94 805.97-2.56 805.97-1.66L805.97-1.66Q805.97-0.76 805.61-0.38 805.26 0 804.43 0L804.43 0 785.29 0Q784.46 0 784.1-0.38 783.75-0.76 783.75-1.66L783.75-1.66Q783.75-2.56 784.1-2.94 784.46-3.32 785.29-3.32L785.29-3.32 792.93-3.32 792.93-28.71 786.26-28.71Q785.43-28.71 785.08-29.09 784.73-29.47 784.73-30.37L784.73-30.37Q784.73-31.27 785.08-31.65 785.43-32.03 786.26-32.03L786.26-32.03 795.05-32.03ZM832.26-22.56Q833.09-22.56 833.44-22.18 833.79-21.8 833.79-20.9L833.79-20.9 833.79-3.32 835.8-3.32Q836.63-3.32 836.98-2.94 837.33-2.56 837.33-1.66L837.33-1.66Q837.33-0.76 836.98-0.38 836.63 0 835.8 0L835.8 0 831.91 0Q831.08 0 830.73-0.37 830.38-0.73 830.38-1.64L830.38-1.64 830.38-4.59Q828.77-2.1 826.6-0.78 824.44 0.54 821.95 0.54L821.95 0.54Q819.73 0.54 818.1-0.43 816.46-1.39 815.58-3.2 814.7-5 814.7-7.42L814.7-7.42 814.7-19.24 812.7-19.24Q811.87-19.24 811.52-19.62 811.16-20 811.16-20.9L811.16-20.9Q811.16-21.8 811.52-22.18 811.87-22.56 812.7-22.56L812.7-22.56 816.83-22.56Q817.66-22.56 818.01-22.18 818.37-21.8 818.37-20.9L818.37-20.9 818.37-7.79Q818.37-5.62 819.37-4.35 820.37-3.08 822.32-3.08L822.32-3.08Q824.4-3.08 826.19-4.27 827.98-5.47 829.06-7.57 830.13-9.67 830.13-12.26L830.13-12.26 830.13-19.24 826.67-19.24Q825.84-19.24 825.48-19.62 825.13-20 825.13-20.9L825.13-20.9Q825.13-21.8 825.48-22.18 825.84-22.56 826.67-22.56L826.67-22.56 832.26-22.56ZM850.56-29.52Q851.57-29.52 851.98-29.15 852.4-28.78 852.4-27.93L852.4-27.93 852.4-20.61 862.43-20.61Q863.26-20.61 863.61-20.23 863.97-19.85 863.97-18.95L863.97-18.95Q863.97-18.04 863.61-17.66 863.26-17.29 862.43-17.29L862.43-17.29 852.4-17.29 852.4-8.4Q852.4-5.62 853.36-4.32 854.32-3.03 856.72-3.03L856.72-3.03Q858.35-3.03 860.16-3.69 861.97-4.35 863.65-5.44L863.65-5.44Q863.99-5.69 864.41-5.69L864.41-5.69Q865.24-5.69 865.82-4.57L865.82-4.57Q866.14-3.93 866.14-3.47L866.14-3.47Q866.14-2.69 865.34-2.2L865.34-2.2Q863.43-1 861.09-0.23 858.74 0.54 856.72 0.54L856.72 0.54Q852.57 0.54 850.65-1.62 848.73-3.78 848.73-8.08L848.73-8.08 848.73-17.29 843.78-17.29Q842.95-17.29 842.59-17.66 842.24-18.04 842.24-18.95L842.24-18.95Q842.24-19.85 842.59-20.23 842.95-20.61 843.78-20.61L843.78-20.61 848.73-20.61 848.73-27.93Q848.73-28.78 849.15-29.15 849.56-29.52 850.56-29.52L850.56-29.52ZM885.23-22.56Q886.06-22.56 886.41-22.18 886.77-21.8 886.77-20.9L886.77-20.9 886.77-3.32 894.61-3.32Q895.44-3.32 895.79-2.94 896.14-2.56 896.14-1.66L896.14-1.66Q896.14-0.76 895.79-0.38 895.44 0 894.61 0L894.61 0 875.46 0Q874.63 0 874.28-0.38 873.93-0.76 873.93-1.66L873.93-1.66Q873.93-2.56 874.28-2.94 874.63-3.32 875.46-3.32L875.46-3.32 883.11-3.32 883.11-19.24 876.93-19.24Q876.1-19.24 875.75-19.62 875.39-20 875.39-20.9L875.39-20.9Q875.39-21.8 875.75-22.18 876.1-22.56 876.93-22.56L876.93-22.56 885.23-22.56ZM884.45-33.28Q885.79-33.28 886.28-32.92 886.77-32.57 886.77-31.69L886.77-31.69 886.77-28.52Q886.77-27.64 886.28-27.28 885.79-26.93 884.45-26.93L884.45-26.93Q883.11-26.93 882.62-27.28 882.13-27.64 882.13-28.52L882.13-28.52 882.13-31.69Q882.13-32.57 882.62-32.92 883.11-33.28 884.45-33.28L884.45-33.28ZM914.33-23.1Q917.67-23.1 920.36-21.58 923.05-20.07 924.57-17.37 926.1-14.67 926.1-11.28L926.1-11.28Q926.1-7.89 924.57-5.19 923.05-2.49 920.36-0.98 917.67 0.54 914.33 0.54L914.33 0.54Q910.98 0.54 908.3-0.98 905.61-2.49 904.09-5.19 902.56-7.89 902.56-11.28L902.56-11.28Q902.56-14.67 904.09-17.37 905.61-20.07 908.3-21.58 910.98-23.1 914.33-23.1L914.33-23.1ZM914.33-19.48Q911.96-19.48 910.17-18.44 908.37-17.41 907.4-15.54 906.42-13.67 906.42-11.28L906.42-11.28Q906.42-8.89 907.4-7.02 908.37-5.15 910.17-4.11 911.96-3.08 914.33-3.08L914.33-3.08Q916.7-3.08 918.49-4.11 920.29-5.15 921.26-7.02 922.24-8.89 922.24-11.28L922.24-11.28Q922.24-13.67 921.26-15.54 920.29-17.41 918.49-18.44 916.7-19.48 914.33-19.48L914.33-19.48ZM947.07-23.1Q949.29-23.1 950.92-22.13 952.56-21.17 953.44-19.36 954.32-17.55 954.32-15.14L954.32-15.14 954.32-3.32 956.32-3.32Q957.15-3.32 957.5-2.94 957.86-2.56 957.86-1.66L957.86-1.66Q957.86-0.76 957.5-0.38 957.15 0 956.32 0L956.32 0 948.41 0Q947.58 0 947.22-0.38 946.87-0.76 946.87-1.66L946.87-1.66Q946.87-2.56 947.22-2.94 947.58-3.32 948.41-3.32L948.41-3.32 950.65-3.32 950.65-14.77Q950.65-16.94 949.65-18.21 948.65-19.48 946.7-19.48L946.7-19.48Q944.62-19.48 942.83-18.29 941.04-17.09 939.96-14.99 938.89-12.89 938.89-10.3L938.89-10.3 938.89-3.32 941.13-3.32Q941.96-3.32 942.32-2.94 942.67-2.56 942.67-1.66L942.67-1.66Q942.67-0.76 942.32-0.38 941.96 0 941.13 0L941.13 0 933.22 0Q932.39 0 932.04-0.38 931.69-0.76 931.69-1.66L931.69-1.66Q931.69-2.56 932.04-2.94 932.39-3.32 933.22-3.32L933.22-3.32 935.23-3.32 935.23-19.24 932.73-19.24Q931.9-19.24 931.55-19.62 931.2-20 931.2-20.9L931.2-20.9Q931.2-21.8 931.55-22.18 931.9-22.56 932.73-22.56L932.73-22.56 937.11-22.56Q937.94-22.56 938.29-22.18 938.64-21.8 938.64-20.9L938.64-20.9 938.64-17.97Q940.25-20.46 942.42-21.78 944.58-23.1 947.07-23.1L947.07-23.1ZM981.98-23.1Q982.98-23.1 983.39-22.73 983.81-22.36 983.81-21.51L983.81-21.51 983.81-16.87Q983.81-16.02 983.39-15.65 982.98-15.28 981.98-15.28L981.98-15.28Q981.15-15.28 980.8-15.92L980.8-15.92Q979.75-17.92 977.75-18.74 975.75-19.56 972.67-19.56L972.67-19.56Q970.31-19.56 968.98-18.71 967.64-17.87 967.64-16.36L967.64-16.36Q967.64-15.58 968.15-15.09 968.65-14.6 969.62-14.28L969.62-14.28Q970.43-14.01 971.49-13.87 972.55-13.72 974.24-13.55L974.24-13.55Q976.6-13.28 978.06-13.05 979.51-12.82 980.8-12.35L980.8-12.35Q982.76-11.65 983.84-10.3 984.93-8.96 984.93-6.76L984.93-6.76Q984.93-4.57 983.82-2.92 982.71-1.27 980.57-0.37 978.44 0.54 975.46 0.54L975.46 0.54Q972.82 0.54 970.82-0.2 968.82-0.93 967.33-2.42L967.33-2.42 967.33-1.05Q967.33-0.2 966.91 0.17 966.5 0.54 965.5 0.54L965.5 0.54Q964.5 0.54 964.08 0.17 963.67-0.2 963.67-1.05L963.67-1.05 963.67-6.91Q963.67-7.76 964.08-8.13 964.5-8.5 965.5-8.5L965.5-8.5Q966.01-8.5 966.3-8.26 966.59-8.03 966.81-7.5L966.81-7.5Q967.69-5.15 969.74-4.08 971.79-3 975.21-3L975.21-3Q978.04-3 979.56-4.03 981.07-5.05 981.07-6.76L981.07-6.76Q981.07-7.59 980.54-8.13 980-8.67 979-9.01L979-9.01Q978.14-9.28 977.03-9.46 975.92-9.64 974.21-9.81L974.21-9.81Q971.92-10.06 970.38-10.33 968.84-10.6 967.55-11.11L967.55-11.11Q965.76-11.82 964.78-13.07 963.79-14.33 963.79-16.36L963.79-16.36Q963.79-18.48 964.9-20.01 966.01-21.53 967.97-22.31 969.94-23.1 972.43-23.1L972.43-23.1Q974.8-23.1 976.76-22.39 978.73-21.68 980.14-20.41L980.14-20.41 980.14-21.51Q980.14-22.36 980.56-22.73 980.97-23.1 981.98-23.1L981.98-23.1Z" opacity="1" transform="matrix(1,0,0,1,0,0)" fill="#ffffff" class="slogan-text-1" data-fill-palette-color="secondary" id="text-1"></path></svg></g></svg></g></svg></g></svg></g><g></g></svg></g></svg></g></svg></g></svg></g><defs></defs></svg><rect width="395.52" height="247.2" fill="none" stroke="none" visibility="hidden"></rect></g></svg></g></svg>